<?xml version="1.0" encoding="utf-8"?>
<!-- Generator: Adobe Illustrator 24.0.0, SVG Export Plug-In . SVG Version: 6.00 Build 0)  -->
<svg version="1.1" xmlns="http://www.w3.org/2000/svg" xmlns:xlink="http://www.w3.org/1999/xlink" x="0px" y="0px"
	 viewBox="0 0 1080 1080" style="enable-background:new 0 0 1080 1080;" xml:space="preserve">
<style type="text/css">
	.st0{display:none;}
	.st1{display:none;fill:#1B75BC;}
	.st2{fill:none;stroke:#F16022;stroke-width:4;stroke-miterlimit:10;}
</style>
<g id="Layer_1" class="st0">
	
		<image style="display:inline;overflow:visible;" width="139" height="140" xlink:href="32845612.jpg"  transform="matrix(1 0 0 1 470.0854 469.561)">
	</image>
</g>
<g id="Layer_2">
	<line class="st1" x1="540.9" y1="486.3" x2="528.5" y2="506.2"/>
	<g>
		<polyline class="st2" points="615.2,658.1 807.3,658.1 807.3,688.5 262.1,688.5 262.1,762.9 237.7,762.9 237.7,828.6 222,828.6 
			222,762.9 197.6,762.9 197.6,688.5 197.8,688.5 197.8,658.1 197.6,658.1 197.6,658.1 615.2,658.1 		"/>
		<rect x="197.6" y="658.1" class="st2" width="0.2" height="30.5"/>
		<path class="st2" d="M436.5,434.3l-88.8-0.8v224.5h89V434.3H436.5z M384.9,609.6h-29.3v-44.6h29.3V609.6z M384.9,514.7h-29.3
			v-44.6h29.3V514.7z M428.6,609.8h-29.3v-44.6h29.3V609.8z M428.6,514.7h-29.3v-44.6h29.3V514.7z"/>
		<rect x="197.6" y="658.1" class="st2" width="0.2" height="30.5"/>
		<path class="st2" d="M624,506.8v151.2h80.8V506.8H624z M697.2,566.5H668v-44.6h29.3V566.5z"/>
		<rect x="522.2" y="138.9" class="st2" width="7.3" height="519.1"/>
		<rect x="505.1" y="166.9" class="st2" width="7.3" height="491.1"/>
		<rect x="487.9" y="195" class="st2" width="7.3" height="463"/>
		<rect x="470.8" y="222.9" class="st2" width="7.3" height="435.1"/>
		<rect x="453.6" y="251" class="st2" width="7.3" height="407.1"/>
		<rect x="436.5" y="279.1" class="st2" width="7.3" height="379"/>
		<rect x="529.5" y="222.7" class="st2" width="7.3" height="435.4"/>
		<rect x="546.6" y="250.7" class="st2" width="7.3" height="407.4"/>
		<rect x="563.8" y="278.8" class="st2" width="7.3" height="379.2"/>
		<rect x="580.9" y="306.7" class="st2" width="7.3" height="351.3"/>
		<rect x="598.1" y="334.7" class="st2" width="7.3" height="323.3"/>
		<rect x="615.2" y="363.5" class="st2" width="7.3" height="294.6"/>
		<path class="st2" d="M272.4,829.5h-12v-56.9h11.1v8.1c1.9-3.8,3.6-6.3,5.1-7.6c1.5-1.2,3.2-1.9,5.2-1.9c2.7,0,5.4,1,7.9,2.8
			l-3.7,13.1c-2-1.6-3.9-2.5-5.6-2.5c-1.7,0-3.1,0.6-4.4,1.9c-1.3,1.3-2.2,3.6-2.7,6.9c-0.6,3.3-0.8,9.4-0.8,18.3V829.5z"/>
		<path class="st2" d="M335.3,829.5V821c-1.7,3.1-3.8,5.5-6.5,7.2c-2.7,1.7-5.5,2.6-8.5,2.6c-3,0-5.6-0.8-8-2.4
			c-2.4-1.6-4.1-3.9-5.3-6.9c-1.2-3-1.7-7.3-1.7-12.9v-36h12v26.1c0,7.5,0.2,12.2,0.5,14.2c0.4,2,1.2,3.6,2.4,4.7
			c1.2,1.1,2.7,1.7,4.5,1.7c2,0,3.9-0.7,5.5-2.2c1.7-1.4,2.8-3.3,3.3-5.6c0.5-2.3,0.8-7.3,0.8-15v-24h12v56.9H335.3z"/>
		<path class="st2" d="M366.8,800.2c0-5.6,1.1-10.7,3.2-15.2c2.2-4.6,5-8,8.4-10.3c3.5-2.3,7.4-3.4,11.7-3.4c7.3,0,13,2.9,17.2,8.8
			c4.2,5.9,6.2,12.8,6.2,20.6c0,5.9-1.1,11.2-3.2,15.9c-2.2,4.7-5,8.3-8.5,10.6s-7.4,3.6-11.6,3.6c-6.7,0-12.3-2.6-16.8-7.9
			C369,817.6,366.8,810,366.8,800.2z M379.1,801.1c0,5.8,1.1,10.1,3.3,13.1c2.2,3,4.8,4.4,7.9,4.4c3,0,5.6-1.5,7.8-4.5
			c2.2-3,3.2-7.4,3.2-13.2c0-5.7-1.1-10-3.3-12.9c-2.2-3-4.8-4.5-7.9-4.5c-3,0-5.6,1.5-7.8,4.5C380.2,791,379.1,795.3,379.1,801.1z"
			/>
		<path class="st2" d="M474.9,829.5h-12v-29c0-5.8-0.2-9.7-0.7-11.6c-0.5-1.9-1.3-3.4-2.5-4.5c-1.2-1-2.6-1.6-4.2-1.6
			c-2,0-3.8,0.7-5.5,2c-1.6,1.3-2.8,3.2-3.4,5.5c-0.7,2.4-1,6.8-1,13.3v25.8h-12v-56.9h11.1v8.3c2-3.2,4.2-5.6,6.7-7.2
			c2.5-1.6,5.2-2.4,8.2-2.4c3.5,0,6.5,0.9,8.9,2.8c2.4,1.9,4.1,4.3,5,7.2c0.9,2.9,1.4,7.2,1.4,12.8V829.5z"/>
		<path class="st2" d="M496.5,833.2l13.7,0c0.2,2.1,0.8,5.6,1.9,6.5c1.1,0.9,2.7,1.3,5,1.3c2.6,0,4.8-0.5,6.4-1.3
			c1.1-0.6,2-1.7,2.7-3.2c0.6-1.5,0.9-4.1,0.9-7.9v-8.3c-1.8,3.1-3.8,5.4-6.1,6.9c-2.3,1.5-4.8,2.3-7.5,2.3c-5,0-9.3-2.3-12.7-7
			c-4-5.4-5.9-12.6-5.9-21.8c0-9.7,1.9-17,5.6-22c3.7-4.9,8.2-7.4,13.6-7.4c2.8,0,5.4,0.8,7.7,2.3c2.3,1.6,4.4,3.9,6.2,7v-8h11.2v51
			c0,8.2-0.7,14.1-2.2,17.8c-1.5,3.7-3.7,6.5-6.7,8.3c-3,1.9-7.2,2.8-12.6,2.8c-5,0-8.9-0.7-11.9-2c-3-1.4-5.3-3.4-6.8-6.1
			c-1.6-2.7-2.4-5.8-2.4-9.3V833.2z M507.3,799.8c0,6.1,0.9,10.5,2.8,13.3c1.9,2.8,4.2,4.2,6.8,4.2c2.9,0,5.3-1.4,7.4-4.2
			c2-2.8,3.1-7.1,3.1-12.9c0-5.9-1-10.3-2.9-13.2c-2-2.8-4.4-4.3-7.3-4.3c-2.8,0-5.2,1.4-7.1,4.2
			C508.2,789.8,507.3,794.1,507.3,799.8z"/>
		<path class="st2" d="M802.2,817v12.7h-93.8v-29c0-5.8-0.2-9.7-0.7-11.6s-1.3-3.4-2.5-4.5c-1.2-1-2.6-1.5-4.2-1.5
			c-2,0-3.8,0.7-5.5,2c-1.6,1.3-2.8,3.2-3.4,5.5c-0.7,2.4-1,6.8-1,13.3v25.8h-12v-56.9h11.1v8.3c2-3.2,4.2-5.6,6.7-7.2
			c2.5-1.6,5.2-2.4,8.2-2.4c3.5,0,6.5,0.9,8.9,2.8c2.4,1.9,4.1,4.3,5,7.2c0.9,3,1.4,7.2,1.4,12.8V817H802.2z"/>
		<path class="st2" d="M654.2,747C654.2,747,654.2,747,654.2,747l-30.7,26.6l-7.9,41c-1.3,0.1-2.7,0.2-4,0.2c-0.1,0-0.3,0-0.4,0
			l-7.9-41.2L570,744.8c0.6-1.1,1.2-2.1,1.9-3.2l41.4,14.3l38.5-13.3C652.7,744.1,653.4,745.5,654.2,747z"/>
		<path class="st2" d="M661,716.8v13.4c-11.3-15-29.3-24.7-49.5-24.7c-34.2,0-62,27.8-62,62c0,34.2,27.8,62,62,62
			c20.2,0,38.1-9.7,49.5-24.7v25h13.7V716.8H661z M615.6,814.6c-1.3,0.1-2.7,0.2-4,0.2c-0.1,0-0.3,0-0.4,0
			c-25.9-0.2-46.9-21.4-46.9-47.3c0-8.2,2.1-15.9,5.8-22.6c0.6-1.1,1.2-2.1,1.9-3.2c8.4-12.9,23-21.5,39.6-21.5
			c17,0,31.9,9,40.3,22.5c0.9,1.4,1.7,2.8,2.4,4.3c0,0,0,0,0,0c3,6.2,4.7,13.2,4.7,20.5C658.8,792.2,639.8,812.5,615.6,814.6z"/>
	</g>
</g>
</svg>
