<?xml version="1.0" encoding="utf-8"?>
<!-- Generator: Adobe Illustrator 24.0.0, SVG Export Plug-In . SVG Version: 6.00 Build 0)  -->
<svg version="1.1" id="Layer_1" xmlns="http://www.w3.org/2000/svg" xmlns:xlink="http://www.w3.org/1999/xlink" x="0px" y="0px"
	 viewBox="0 0 1080 1080" style="enable-background:new 0 0 1080 1080;" xml:space="preserve">
<style type="text/css">
	.st0{fill:#012F8D;}
	.st1{display:none;}
	.st2{display:none;fill:none;}
	.st3{fill:#DB5252;}
	.st4{fill:#FFFFFF;}
	.st5{fill:#F20531;}
	.st6{font-family:'OpenSans-Regular';}
	.st7{font-size:35.4604px;}
	.st8{fill:none;stroke:#FFFFFF;stroke-width:2;stroke-miterlimit:10;}
	.st9{fill:#1B75BB;}
	.st10{fill:#F1F1F2;}
	.st11{fill:#EC1C24;}
</style>
<rect y="45.3" class="st0" width="358.1" height="103.1"/>
<g id="Layer_1_1_" class="st1">
	
		<image style="display:inline;overflow:visible;enable-background:new    ;" width="140" height="141" xlink:href="32845612.jpg"  transform="matrix(0.9929 0 0 0.9929 470.0836 469.5628)">
	</image>
</g>
<g id="Layer_2_1_">
	<line class="st2" x1="61" y1="94.7" x2="59.7" y2="96.8"/>
	<g>
		<polyline class="st3" points="68.9,113 89.4,113 89.4,116.3 31.2,116.3 31.2,124.2 28.7,124.2 28.7,131.2 27,131.2 27,124.2 
			24.4,124.2 24.4,116.3 24.4,116.3 24.4,113 24.4,113 24.4,113 68.9,113 		"/>
		<rect x="24.4" y="113" class="st3" width="0" height="3.3"/>
		<path class="st3" d="M49.9,89.1L40.4,89v23.9h9.5V89.1L49.9,89.1z M44.4,107.9h-3.1v-4.8h3.1V107.9z M44.4,97.7h-3.1V93h3.1V97.7z
			 M49,107.9h-3.1v-4.8H49V107.9z M49,97.7h-3.1V93H49V97.7z"/>
		<rect x="24.4" y="113" class="st3" width="0" height="3.3"/>
		<path class="st3" d="M69.9,96.9V113h8.6V96.9H69.9z M77.7,103.2h-3.1v-4.8h3.1V103.2L77.7,103.2z"/>
		<rect x="59" y="57.6" class="st3" width="0.8" height="55.4"/>
		<rect x="57.2" y="60.7" class="st3" width="0.8" height="52.3"/>
		<rect x="55.4" y="63.6" class="st3" width="0.8" height="49.4"/>
		<rect x="53.6" y="66.6" class="st3" width="0.8" height="46.4"/>
		<rect x="51.7" y="69.6" class="st3" width="0.8" height="43.4"/>
		<rect x="49.9" y="72.6" class="st3" width="0.8" height="40.4"/>
		<rect x="59.8" y="66.6" class="st3" width="0.8" height="46.4"/>
		<rect x="61.6" y="69.6" class="st3" width="0.8" height="43.4"/>
		<rect x="63.5" y="72.5" class="st3" width="0.8" height="40.4"/>
		<rect x="65.3" y="75.6" class="st3" width="0.8" height="37.4"/>
		<rect x="67.1" y="78.5" class="st3" width="0.8" height="34.5"/>
		<rect x="68.9" y="81.6" class="st3" width="0.8" height="31.4"/>
		<path class="st3" d="M32.4,131.2h-1.3v-6.1h1.2v0.8c0.2-0.4,0.4-0.7,0.5-0.8c0.2-0.2,0.4-0.2,0.5-0.2c0.3,0,0.6,0.1,0.8,0.3
			l-0.4,1.4c-0.2-0.2-0.4-0.3-0.6-0.3c-0.2,0-0.3,0.1-0.5,0.2c-0.2,0.2-0.2,0.4-0.3,0.8s-0.1,1-0.1,2v1.9H32.4z"/>
		<path class="st3" d="M39.1,131.2v-0.9c-0.2,0.3-0.4,0.6-0.7,0.8s-0.6,0.3-0.9,0.3s-0.6-0.1-0.8-0.2c-0.2-0.2-0.5-0.4-0.5-0.8
			c-0.2-0.3-0.2-0.8-0.2-1.4v-3.9h1.3v2.8c0,0.8,0,1.3,0.1,1.5c0.1,0.2,0.2,0.4,0.2,0.5c0.2,0.2,0.3,0.2,0.5,0.2s0.4-0.1,0.6-0.2
			c0.2-0.2,0.3-0.4,0.4-0.6c0.1-0.2,0.1-0.8,0.1-1.6v-2.6h1.3v6.1L39.1,131.2L39.1,131.2z"/>
		<path class="st3" d="M42.4,128.1c0-0.6,0.2-1.1,0.4-1.6s0.5-0.8,0.9-1.1c0.4-0.2,0.8-0.4,1.2-0.4c0.8,0,1.4,0.3,1.8,0.9
			c0.5,0.6,0.7,1.4,0.7,2.2c0,0.6-0.2,1.2-0.4,1.7s-0.5,0.9-0.9,1.1c-0.4,0.2-0.8,0.4-1.2,0.4c-0.7,0-1.3-0.3-1.8-0.8
			C42.7,130,42.4,129.2,42.4,128.1z M43.7,128.2c0,0.6,0.2,1.1,0.4,1.4c0.2,0.3,0.5,0.5,0.8,0.5s0.6-0.2,0.8-0.5s0.4-0.8,0.4-1.4
			c0-0.6-0.2-1.1-0.4-1.4s-0.5-0.5-0.8-0.5s-0.6,0.2-0.8,0.5C43.9,127.2,43.7,127.6,43.7,128.2z"/>
		<path class="st3" d="M53.9,131.2h-1.3v-3.1c0-0.6,0-1.1-0.1-1.2c-0.1-0.2-0.2-0.4-0.3-0.5s-0.3-0.2-0.5-0.2s-0.4,0.1-0.6,0.2
			c-0.2,0.2-0.3,0.4-0.4,0.6c-0.1,0.2-0.1,0.8-0.1,1.4v2.7h-1.3V125h1.2v0.9c0.2-0.4,0.5-0.6,0.7-0.8c0.3-0.2,0.5-0.2,0.9-0.2
			s0.7,0.1,1,0.3c0.3,0.2,0.5,0.5,0.5,0.8c0.1,0.3,0.2,0.8,0.2,1.4L53.9,131.2L53.9,131.2z"/>
		<path class="st3" d="M56.3,131.7h1.4c0,0.2,0.1,0.6,0.2,0.7c0.2,0.1,0.3,0.2,0.5,0.2c0.3,0,0.5-0.1,0.7-0.2
			c0.2-0.1,0.2-0.2,0.3-0.4s0.1-0.5,0.1-0.8v-0.9c-0.2,0.3-0.4,0.6-0.7,0.8c-0.2,0.2-0.5,0.2-0.8,0.2c-0.5,0-1-0.2-1.4-0.8
			c-0.5-0.6-0.6-1.4-0.6-2.3c0-1.1,0.2-1.8,0.6-2.3c0.4-0.5,0.9-0.8,1.4-0.8c0.3,0,0.6,0.1,0.8,0.2c0.2,0.2,0.5,0.4,0.7,0.8v-0.8
			h1.2v5.4c0,0.9-0.1,1.5-0.2,1.9s-0.4,0.7-0.7,0.9s-0.8,0.3-1.4,0.3c-0.5,0-1-0.1-1.3-0.2c-0.3-0.2-0.5-0.4-0.8-0.7
			c-0.2-0.3-0.2-0.6-0.2-1L56.3,131.7L56.3,131.7z M57.4,128.1c0,0.7,0.1,1.1,0.3,1.4c0.2,0.3,0.5,0.5,0.8,0.5s0.5-0.2,0.8-0.5
			c0.2-0.3,0.3-0.8,0.3-1.4c0-0.6-0.1-1.1-0.3-1.4s-0.5-0.5-0.8-0.5s-0.5,0.2-0.8,0.5C57.5,127.1,57.4,127.5,57.4,128.1z"/>
		<path class="st3" d="M88.9,130v1.4h-10v-3.1c0-0.6,0-1.1-0.1-1.2c-0.1-0.2-0.2-0.4-0.3-0.5c-0.2-0.1-0.3-0.2-0.5-0.2
			s-0.4,0.1-0.6,0.2c-0.2,0.2-0.3,0.4-0.4,0.6s0,0.8,0,1.5v2.7h-1.3v-6.1h1.2v0.9c0.2-0.4,0.5-0.6,0.7-0.8c0.3-0.2,0.5-0.2,0.9-0.2
			s0.7,0.1,1,0.3c0.2,0.2,0.5,0.5,0.5,0.8c0.1,0.3,0.2,0.8,0.2,1.4v2.4h8.7L88.9,130L88.9,130z"/>
		<path class="st3" d="M73.1,122.5L73.1,122.5l-3.3,2.8l-0.8,4.4c-0.2,0-0.3,0-0.5,0c0,0,0,0-0.1,0l-0.8-4.4l-3.6-3.1
			c0.1-0.2,0.2-0.2,0.2-0.4l4.4,1.5l4.1-1.4C72.9,122.2,73,122.3,73.1,122.5z"/>
		<path class="st3" d="M73.8,119.3v1.4c-1.2-1.6-3.1-2.6-5.3-2.6c-3.6,0-6.6,3-6.6,6.6s3,6.6,6.6,6.6c2.1,0,4.1-1.1,5.3-2.6v2.6h1.4
			v-12H73.8L73.8,119.3z M69,129.6c-0.2,0-0.3,0-0.5,0c0,0,0,0-0.1,0c-2.8,0-5-2.3-5-5.1c0-0.9,0.2-1.7,0.6-2.4
			c0.1-0.2,0.2-0.2,0.2-0.4c0.9-1.4,2.4-2.3,4.2-2.3c1.8,0,3.4,1,4.3,2.4c0.1,0.2,0.2,0.3,0.2,0.5l0,0c0.3,0.7,0.5,1.4,0.5,2.2
			C73.6,127.3,71.6,129.5,69,129.6z"/>
	</g>
</g>
<rect x="452.2" y="45.3" class="st0" width="358.1" height="103.1"/>
<rect y="206.6" class="st0" width="358.1" height="103.1"/>
<g id="Layer_2_2_">
	<line class="st2" x1="61" y1="256" x2="59.7" y2="258.1"/>
	<g>
		<polyline class="st4" points="68.9,274.3 89.4,274.3 89.4,277.5 31.2,277.5 31.2,285.5 28.7,285.5 28.7,292.4 27,292.4 27,285.5 
			24.4,285.5 24.4,277.5 24.4,277.5 24.4,274.3 24.4,274.3 24.4,274.3 68.9,274.3 		"/>
		<rect x="24.4" y="274.3" class="st4" width="0" height="3.3"/>
		<path class="st4" d="M49.9,250.4l-9.5-0.1v24h9.5V250.4L49.9,250.4z M44.4,269.1h-3.1v-4.8h3.1V269.1z M44.4,259h-3.1v-4.8h3.1
			V259z M49,269.1h-3.1v-4.8H49V269.1z M49,259h-3.1v-4.8H49V259z"/>
		<rect x="24.4" y="274.3" class="st4" width="0" height="3.3"/>
		<path class="st4" d="M69.9,258.2v16.1h8.6v-16.1H69.9z M77.7,264.5h-3.1v-4.8h3.1V264.5L77.7,264.5z"/>
		<rect x="59" y="218.9" class="st4" width="0.8" height="55.4"/>
		<rect x="57.2" y="221.9" class="st4" width="0.8" height="52.3"/>
		<rect x="55.4" y="224.9" class="st4" width="0.8" height="49.4"/>
		<rect x="53.6" y="227.8" class="st4" width="0.8" height="46.4"/>
		<rect x="51.7" y="230.9" class="st4" width="0.8" height="43.4"/>
		<rect x="49.9" y="233.9" class="st4" width="0.8" height="40.4"/>
		<rect x="59.8" y="227.8" class="st4" width="0.8" height="46.4"/>
		<rect x="61.6" y="230.9" class="st4" width="0.8" height="43.4"/>
		<rect x="63.5" y="233.8" class="st4" width="0.8" height="40.4"/>
		<rect x="65.3" y="236.8" class="st4" width="0.8" height="37.4"/>
		<rect x="67.1" y="239.8" class="st4" width="0.8" height="34.5"/>
		<rect x="68.9" y="242.9" class="st4" width="0.8" height="31.4"/>
		<path class="st4" d="M32.4,292.5h-1.3v-6.1h1.2v0.8c0.2-0.4,0.4-0.7,0.5-0.8s0.4-0.2,0.5-0.2c0.3,0,0.6,0.1,0.8,0.3l-0.4,1.4
			c-0.2-0.2-0.4-0.3-0.6-0.3c-0.2,0-0.3,0.1-0.5,0.2c-0.2,0.2-0.2,0.4-0.3,0.8s-0.1,1-0.1,2v1.9H32.4z"/>
		<path class="st4" d="M39.1,292.5v-0.9c-0.2,0.3-0.4,0.6-0.7,0.8c-0.3,0.2-0.6,0.3-0.9,0.3s-0.6-0.1-0.8-0.2
			c-0.2-0.2-0.5-0.4-0.5-0.8c-0.2-0.3-0.2-0.8-0.2-1.4v-3.9h1.3v2.8c0,0.8,0,1.3,0.1,1.5s0.2,0.4,0.2,0.5c0.1,0.2,0.3,0.2,0.5,0.2
			s0.4-0.1,0.6-0.2c0.2-0.2,0.3-0.4,0.4-0.6c0.1-0.2,0.1-0.8,0.1-1.6v-2.6h1.3v6.1L39.1,292.5L39.1,292.5z"/>
		<path class="st4" d="M42.4,289.4c0-0.6,0.2-1.1,0.4-1.6s0.5-0.8,0.9-1.1c0.4-0.2,0.8-0.4,1.2-0.4c0.8,0,1.4,0.3,1.8,0.9
			c0.5,0.6,0.7,1.4,0.7,2.2c0,0.6-0.2,1.2-0.4,1.7s-0.5,0.9-0.9,1.1s-0.8,0.4-1.2,0.4c-0.7,0-1.3-0.3-1.8-0.8
			C42.7,291.3,42.4,290.5,42.4,289.4z M43.7,289.5c0,0.6,0.2,1.1,0.4,1.4s0.5,0.5,0.8,0.5s0.6-0.2,0.8-0.5s0.4-0.8,0.4-1.4
			s-0.2-1.1-0.4-1.4s-0.5-0.5-0.8-0.5s-0.6,0.2-0.8,0.5S43.7,288.9,43.7,289.5z"/>
		<path class="st4" d="M53.9,292.5h-1.3v-3.1c0-0.6,0-1.1-0.1-1.2c-0.1-0.2-0.2-0.4-0.3-0.5s-0.3-0.2-0.5-0.2s-0.4,0.1-0.6,0.2
			c-0.2,0.2-0.3,0.4-0.4,0.6c-0.1,0.2-0.1,0.8-0.1,1.4v2.7h-1.3v-6.1h1.2v0.9c0.2-0.4,0.5-0.6,0.7-0.8c0.3-0.2,0.5-0.2,0.9-0.2
			s0.7,0.1,1,0.3c0.3,0.2,0.5,0.5,0.5,0.8c0.1,0.3,0.2,0.8,0.2,1.4L53.9,292.5L53.9,292.5z"/>
		<path class="st4" d="M56.3,293h1.4c0,0.2,0.1,0.6,0.2,0.7c0.2,0.1,0.3,0.2,0.5,0.2c0.3,0,0.5-0.1,0.7-0.2s0.2-0.2,0.3-0.4
			c0.1-0.2,0.1-0.5,0.1-0.8v-0.9c-0.2,0.3-0.4,0.6-0.7,0.8c-0.2,0.2-0.5,0.2-0.8,0.2c-0.5,0-1-0.2-1.4-0.8c-0.5-0.6-0.6-1.4-0.6-2.3
			c0-1.1,0.2-1.8,0.6-2.3s0.9-0.8,1.4-0.8c0.3,0,0.6,0.1,0.8,0.2c0.2,0.2,0.5,0.4,0.7,0.8v-0.8h1.2v5.4c0,0.9-0.1,1.5-0.2,1.9
			s-0.4,0.7-0.7,0.9c-0.3,0.2-0.8,0.3-1.4,0.3c-0.5,0-1-0.1-1.3-0.2c-0.3-0.2-0.5-0.4-0.8-0.7c-0.2-0.3-0.2-0.6-0.2-1L56.3,293
			L56.3,293z M57.4,289.4c0,0.7,0.1,1.1,0.3,1.4s0.5,0.5,0.8,0.5s0.5-0.2,0.8-0.5c0.2-0.3,0.3-0.8,0.3-1.4s-0.1-1.1-0.3-1.4
			s-0.5-0.5-0.8-0.5s-0.5,0.2-0.8,0.5C57.5,288.3,57.4,288.8,57.4,289.4z"/>
		<path class="st4" d="M88.9,291.2v1.4h-10v-3.1c0-0.6,0-1.1-0.1-1.2c-0.1-0.2-0.2-0.4-0.3-0.5c-0.2-0.1-0.3-0.2-0.5-0.2
			s-0.4,0.1-0.6,0.2c-0.2,0.2-0.3,0.4-0.4,0.6s-0.1,0.8-0.1,1.4v2.7h-1.3v-6.1h1.2v0.9c0.2-0.4,0.5-0.6,0.7-0.8
			c0.3-0.2,0.5-0.2,0.9-0.2s0.7,0.1,1,0.3c0.2,0.2,0.5,0.5,0.5,0.8c0.1,0.3,0.2,0.8,0.2,1.4v2.4h8.7v0H88.9z"/>
		<path class="st4" d="M73.1,283.7L73.1,283.7l-3.3,2.8l-0.8,4.4c-0.2,0-0.3,0-0.5,0c0,0,0,0-0.1,0l-0.8-4.4l-3.6-3.1
			c0.1-0.2,0.2-0.2,0.2-0.4l4.4,1.5l4.1-1.4C72.9,283.4,73,283.6,73.1,283.7z"/>
		<path class="st4" d="M73.8,280.6v1.4c-1.2-1.6-3.1-2.6-5.3-2.6c-3.6,0-6.6,3-6.6,6.6s3,6.6,6.6,6.6c2.1,0,4.1-1.1,5.3-2.6v2.6h1.4
			v-12H73.8L73.8,280.6z M69,290.9c-0.2,0-0.3,0-0.5,0c0,0,0,0-0.1,0c-2.8,0-5-2.3-5-5.1c0-0.9,0.2-1.7,0.6-2.4
			c0.1-0.2,0.2-0.2,0.2-0.4c0.9-1.4,2.4-2.3,4.2-2.3c1.8,0,3.4,1,4.3,2.4c0.1,0.2,0.2,0.3,0.2,0.5l0,0c0.3,0.7,0.5,1.4,0.5,2.2
			C73.6,288.6,71.6,290.7,69,290.9z"/>
	</g>
</g>
<rect y="367.8" class="st0" width="358.1" height="103.1"/>
<g id="Layer_2_3_">
	<line class="st2" x1="61" y1="417.3" x2="59.7" y2="419.4"/>
	<g>
		<polyline class="st5" points="68.9,435.6 89.4,435.6 89.4,438.8 31.2,438.8 31.2,446.7 28.7,446.7 28.7,453.7 27,453.7 27,446.7 
			24.4,446.7 24.4,438.8 24.4,438.8 24.4,435.6 24.4,435.6 24.4,435.6 68.9,435.6 		"/>
		<rect x="24.4" y="435.6" class="st5" width="0" height="3.3"/>
		<path class="st5" d="M49.9,411.7l-9.5-0.1v23.9h9.5V411.7L49.9,411.7z M44.4,430.4h-3.1v-4.8h3.1V430.4z M44.4,420.3h-3.1v-4.8
			h3.1V420.3z M49,430.4h-3.1v-4.8H49V430.4z M49,420.3h-3.1v-4.8H49V420.3z"/>
		<rect x="24.4" y="435.6" class="st5" width="0" height="3.3"/>
		<path class="st5" d="M69.9,419.5v16.1h8.6v-16.1H69.9z M77.7,425.8h-3.1V421h3.1V425.8L77.7,425.8z"/>
		<rect x="59" y="380.2" class="st5" width="0.8" height="55.4"/>
		<rect x="57.2" y="383.1" class="st5" width="0.8" height="52.3"/>
		<rect x="55.4" y="386.2" class="st5" width="0.8" height="49.4"/>
		<rect x="53.6" y="389.1" class="st5" width="0.8" height="46.4"/>
		<rect x="51.7" y="392.2" class="st5" width="0.8" height="43.4"/>
		<rect x="49.9" y="395.2" class="st5" width="0.8" height="40.4"/>
		<rect x="59.8" y="389.1" class="st5" width="0.8" height="46.4"/>
		<rect x="61.6" y="392.2" class="st5" width="0.8" height="43.4"/>
		<rect x="63.5" y="395.1" class="st5" width="0.8" height="40.4"/>
		<rect x="65.3" y="398.1" class="st5" width="0.8" height="37.4"/>
		<rect x="67.1" y="401.1" class="st5" width="0.8" height="34.5"/>
		<rect x="68.9" y="404.2" class="st5" width="0.8" height="31.4"/>
		<path class="st5" d="M32.4,453.8h-1.3v-6.1h1.2v0.8c0.2-0.4,0.4-0.7,0.5-0.8c0.2-0.2,0.4-0.2,0.5-0.2c0.3,0,0.6,0.1,0.8,0.3
			l-0.4,1.4c-0.2-0.2-0.4-0.3-0.6-0.3c-0.2,0-0.3,0.1-0.5,0.2c-0.2,0.2-0.2,0.4-0.3,0.8s-0.1,1-0.1,2v1.9H32.4z"/>
		<path class="st5" d="M39.1,453.8v-0.9c-0.2,0.3-0.4,0.6-0.7,0.8s-0.6,0.3-0.9,0.3s-0.6-0.1-0.8-0.2c-0.2-0.2-0.5-0.4-0.5-0.8
			c-0.2-0.3-0.2-0.8-0.2-1.4v-3.9h1.3v2.8c0,0.8,0,1.3,0.1,1.5s0.2,0.4,0.2,0.5c0.1,0.2,0.3,0.2,0.5,0.2s0.4-0.1,0.6-0.2
			c0.2-0.2,0.3-0.4,0.4-0.6c0.1-0.2,0.1-0.8,0.1-1.6v-2.6h1.3v6.1L39.1,453.8L39.1,453.8z"/>
		<path class="st5" d="M42.4,450.7c0-0.6,0.2-1.1,0.4-1.6s0.5-0.8,0.9-1.1c0.4-0.2,0.8-0.4,1.2-0.4c0.8,0,1.4,0.3,1.8,0.9
			c0.5,0.6,0.7,1.4,0.7,2.2c0,0.6-0.2,1.2-0.4,1.7s-0.5,0.9-0.9,1.1s-0.8,0.4-1.2,0.4c-0.7,0-1.3-0.3-1.8-0.8
			C42.7,452.6,42.4,451.8,42.4,450.7z M43.7,450.8c0,0.6,0.2,1.1,0.4,1.4s0.5,0.5,0.8,0.5s0.6-0.2,0.8-0.5s0.4-0.8,0.4-1.4
			s-0.2-1.1-0.4-1.4s-0.5-0.5-0.8-0.5s-0.6,0.2-0.8,0.5C43.9,449.7,43.7,450.2,43.7,450.8z"/>
		<path class="st5" d="M53.9,453.8h-1.3v-3.1c0-0.6,0-1.1-0.1-1.2c-0.1-0.2-0.2-0.4-0.3-0.5c-0.2-0.1-0.3-0.2-0.5-0.2
			s-0.4,0.1-0.6,0.2c-0.2,0.2-0.3,0.4-0.4,0.6c-0.1,0.2-0.1,0.8-0.1,1.4v2.7h-1.3v-6.1h1.2v0.9c0.2-0.4,0.5-0.6,0.7-0.8
			c0.3-0.2,0.5-0.2,0.9-0.2s0.7,0.1,1,0.3c0.2,0.2,0.5,0.5,0.5,0.8c0.1,0.3,0.2,0.8,0.2,1.4L53.9,453.8L53.9,453.8z"/>
		<path class="st5" d="M56.3,454.3h1.4c0,0.2,0.1,0.6,0.2,0.7c0.2,0.1,0.3,0.2,0.5,0.2c0.3,0,0.5-0.1,0.7-0.2s0.2-0.2,0.3-0.4
			c0.1-0.2,0.1-0.5,0.1-0.8v-0.9c-0.2,0.3-0.4,0.6-0.7,0.8c-0.2,0.2-0.5,0.2-0.8,0.2c-0.5,0-1-0.2-1.4-0.8c-0.5-0.6-0.6-1.4-0.6-2.3
			c0-1.1,0.2-1.8,0.6-2.3c0.4-0.5,0.9-0.8,1.4-0.8c0.3,0,0.6,0.1,0.8,0.2c0.2,0.2,0.5,0.4,0.7,0.8v-0.8h1.2v5.4
			c0,0.9-0.1,1.5-0.2,1.9c-0.2,0.4-0.4,0.7-0.7,0.9c-0.3,0.2-0.8,0.3-1.4,0.3c-0.5,0-1-0.1-1.3-0.2c-0.3-0.2-0.5-0.4-0.8-0.7
			c-0.2-0.3-0.2-0.6-0.2-1L56.3,454.3L56.3,454.3z M57.4,450.6c0,0.7,0.1,1.1,0.3,1.4s0.5,0.5,0.8,0.5s0.5-0.2,0.8-0.5
			c0.2-0.3,0.3-0.8,0.3-1.4s-0.1-1.1-0.3-1.4s-0.5-0.5-0.8-0.5s-0.5,0.2-0.8,0.5C57.5,449.6,57.4,450,57.4,450.6z"/>
		<path class="st5" d="M88.9,452.5v1.4h-10v-3.1c0-0.6,0-1.1-0.1-1.2c-0.1-0.2-0.2-0.4-0.3-0.5c-0.2-0.1-0.3-0.2-0.5-0.2
			s-0.4,0.1-0.6,0.2c-0.2,0.2-0.3,0.4-0.4,0.6s-0.1,0.8-0.1,1.4v2.7h-1.3v-6.1h1.2v0.9c0.2-0.4,0.5-0.6,0.7-0.8s0.5-0.2,0.9-0.2
			s0.7,0.1,1,0.3c0.2,0.2,0.5,0.5,0.5,0.8c0.1,0.3,0.2,0.8,0.2,1.4v2.4h8.7v0H88.9z"/>
		<path class="st5" d="M73.1,445L73.1,445l-3.3,2.8l-0.8,4.4c-0.2,0-0.3,0-0.5,0c0,0,0,0-0.1,0l-0.8-4.4l-3.6-3.1
			c0.1-0.2,0.2-0.2,0.2-0.4l4.4,1.5l4.1-1.4C72.9,444.7,73,444.9,73.1,445z"/>
		<path class="st5" d="M73.8,441.9v1.4c-1.2-1.6-3.1-2.6-5.3-2.6c-3.6,0-6.6,3-6.6,6.6s3,6.6,6.6,6.6c2.1,0,4.1-1.1,5.3-2.6v2.6h1.4
			v-12H73.8L73.8,441.9z M69,452.2c-0.2,0-0.3,0-0.5,0c0,0,0,0-0.1,0c-2.8,0-5-2.3-5-5.1c0-0.9,0.2-1.7,0.6-2.4
			c0.1-0.2,0.2-0.2,0.2-0.4c0.9-1.4,2.4-2.3,4.2-2.3c1.8,0,3.4,1,4.3,2.4c0.1,0.2,0.2,0.3,0.2,0.5l0,0c0.3,0.7,0.5,1.4,0.5,2.2
			C73.6,449.9,71.6,452,69,452.2z"/>
	</g>
</g>
<rect y="529" class="st0" width="358.1" height="103.1"/>
<g id="Layer_2_4_">
	<line class="st2" x1="59.2" y1="582.2" x2="57.9" y2="584.3"/>
	<g>
		<polyline class="st5" points="67.1,600.5 87.6,600.5 87.6,603.7 29.4,603.7 29.4,611.6 26.9,611.6 26.9,618.6 25.2,618.6 
			25.2,611.6 22.6,611.6 22.6,603.7 22.6,603.7 22.6,600.5 22.6,600.5 22.6,600.5 67.1,600.5 		"/>
		<rect x="22.6" y="600.5" class="st5" width="0" height="3.3"/>
		<path class="st5" d="M48,576.6l-9.5-0.1v23.9H48V576.6L48,576.6z M42.6,595.2h-3.1v-4.8h3.1V595.2z M42.6,585.2h-3.1v-4.8h3.1
			V585.2z M47.2,595.3h-3.1v-4.8h3.1V595.3z M47.2,585.2h-3.1v-4.8h3.1V585.2z"/>
		<rect x="22.6" y="600.5" class="st5" width="0" height="3.3"/>
		<path class="st5" d="M68.1,584.4v16.1h8.6v-16.1H68.1z M75.9,590.7h-3.1v-4.8h3.1V590.7L75.9,590.7z"/>
		<rect x="57.2" y="545.1" class="st5" width="0.8" height="55.4"/>
		<rect x="55.4" y="548" class="st5" width="0.8" height="52.3"/>
		<rect x="53.6" y="551.1" class="st5" width="0.8" height="49.4"/>
		<rect x="51.7" y="554" class="st5" width="0.8" height="46.4"/>
		<rect x="49.9" y="557" class="st5" width="0.8" height="43.4"/>
		<rect x="48" y="560.1" class="st5" width="0.8" height="40.4"/>
		<rect x="57.9" y="554" class="st5" width="0.8" height="46.4"/>
		<rect x="59.8" y="557" class="st5" width="0.8" height="43.4"/>
		<rect x="61.7" y="560" class="st5" width="0.8" height="40.4"/>
		<rect x="63.5" y="563" class="st5" width="0.8" height="37.4"/>
		<rect x="65.3" y="566" class="st5" width="0.8" height="34.5"/>
		<rect x="67.1" y="569.1" class="st5" width="0.8" height="31.4"/>
		<path class="st5" d="M30.6,618.7h-1.3v-6.1h1.2v0.8c0.2-0.4,0.4-0.7,0.5-0.8c0.2-0.2,0.4-0.2,0.5-0.2c0.3,0,0.6,0.1,0.8,0.3
			l-0.4,1.4c-0.2-0.2-0.4-0.3-0.6-0.3s-0.3,0.1-0.5,0.2c-0.2,0.2-0.2,0.4-0.3,0.8c-0.1,0.4-0.1,1-0.1,2v1.9H30.6z"/>
		<path class="st5" d="M37.3,618.7v-0.9c-0.2,0.3-0.4,0.6-0.7,0.8s-0.6,0.3-0.9,0.3s-0.6-0.1-0.8-0.2c-0.2-0.2-0.5-0.4-0.5-0.8
			c-0.2-0.3-0.2-0.8-0.2-1.4v-3.9h1.3v2.8c0,0.8,0,1.3,0.1,1.5s0.2,0.4,0.2,0.5c0.1,0.2,0.3,0.2,0.5,0.2s0.4-0.1,0.6-0.2
			c0.2-0.2,0.3-0.4,0.4-0.6s0.1-0.8,0.1-1.6v-2.6h1.3v6.1L37.3,618.7L37.3,618.7z"/>
		<path class="st5" d="M40.6,615.6c0-0.6,0.2-1.1,0.4-1.6s0.5-0.8,0.9-1.1c0.4-0.2,0.8-0.4,1.2-0.4c0.8,0,1.4,0.3,1.8,0.9
			c0.5,0.6,0.7,1.4,0.7,2.2c0,0.6-0.2,1.2-0.4,1.7s-0.5,0.9-0.9,1.1c-0.4,0.2-0.8,0.4-1.2,0.4c-0.7,0-1.3-0.3-1.8-0.8
			C40.9,617.5,40.6,616.7,40.6,615.6z M41.9,615.7c0,0.6,0.2,1.1,0.4,1.4c0.2,0.3,0.5,0.5,0.8,0.5s0.6-0.2,0.8-0.5s0.4-0.8,0.4-1.4
			c0-0.6-0.2-1.1-0.4-1.4c-0.2-0.3-0.5-0.5-0.8-0.5s-0.6,0.2-0.8,0.5C42.1,614.6,41.9,615.1,41.9,615.7z"/>
		<path class="st5" d="M52.1,618.7h-1.3v-3.1c0-0.6,0-1.1-0.1-1.2c-0.1-0.2-0.2-0.4-0.3-0.5c-0.2-0.1-0.3-0.2-0.5-0.2
			s-0.4,0.1-0.6,0.2c-0.2,0.2-0.3,0.4-0.4,0.6c-0.1,0.2-0.1,0.8-0.1,1.4v2.7h-1.3v-6.1h1.2v0.9c0.2-0.4,0.5-0.6,0.7-0.8
			c0.3-0.2,0.5-0.2,0.9-0.2s0.7,0.1,1,0.3c0.2,0.2,0.5,0.5,0.5,0.8c0.1,0.3,0.2,0.8,0.2,1.4L52.1,618.7L52.1,618.7z"/>
		<path class="st5" d="M54.5,619.2h1.4c0,0.2,0.1,0.6,0.2,0.7c0.2,0.1,0.3,0.2,0.5,0.2c0.3,0,0.5-0.1,0.7-0.2
			c0.2-0.1,0.2-0.2,0.3-0.4s0.1-0.5,0.1-0.8v-0.9c-0.2,0.3-0.4,0.6-0.7,0.8c-0.2,0.2-0.5,0.2-0.8,0.2c-0.5,0-1-0.2-1.4-0.8
			c-0.5-0.6-0.6-1.4-0.6-2.3c0-1.1,0.2-1.8,0.6-2.3c0.4-0.5,0.9-0.8,1.4-0.8c0.3,0,0.6,0.1,0.8,0.2c0.2,0.2,0.5,0.4,0.7,0.8v-0.8H59
			v5.4c0,0.9-0.1,1.5-0.2,1.9c-0.2,0.4-0.4,0.7-0.7,0.9s-0.8,0.3-1.4,0.3c-0.5,0-1-0.1-1.3-0.2c-0.3-0.2-0.5-0.4-0.8-0.7
			c-0.2-0.3-0.2-0.6-0.2-1L54.5,619.2L54.5,619.2z M55.6,615.5c0,0.7,0.1,1.1,0.3,1.4c0.2,0.3,0.5,0.5,0.8,0.5s0.5-0.2,0.8-0.5
			c0.2-0.3,0.3-0.8,0.3-1.4s-0.1-1.1-0.3-1.4c-0.2-0.3-0.5-0.5-0.8-0.5s-0.5,0.2-0.8,0.5C55.7,614.5,55.6,614.9,55.6,615.5z"/>
		<path class="st5" d="M87.1,617.4v1.4h-10v-3.1c0-0.6,0-1.1-0.1-1.2c-0.1-0.2-0.2-0.4-0.3-0.5s-0.3-0.2-0.5-0.2s-0.4,0.1-0.6,0.2
			c-0.2,0.2-0.3,0.4-0.4,0.6c-0.1,0.2-0.1,0.8-0.1,1.4v2.7h-1.3v-6.1H75v0.9c0.2-0.4,0.5-0.6,0.7-0.8s0.5-0.2,0.9-0.2s0.7,0.1,1,0.3
			c0.2,0.2,0.5,0.5,0.5,0.8c0.1,0.3,0.2,0.8,0.2,1.4v2.4H87v0H87.1z"/>
		<path class="st5" d="M71.3,609.9L71.3,609.9l-3.3,2.8l-0.8,4.4c-0.2,0-0.3,0-0.5,0c0,0,0,0-0.1,0l-0.8-4.4l-3.6-3.1
			c0.1-0.2,0.2-0.2,0.2-0.4l4.4,1.5l4.1-1.4C71.1,609.6,71.2,609.8,71.3,609.9z"/>
		<path class="st5" d="M72,606.7v1.4c-1.2-1.6-3.1-2.6-5.3-2.6c-3.6,0-6.6,3-6.6,6.6s3,6.6,6.6,6.6c2.1,0,4.1-1.1,5.3-2.6v2.6h1.4
			v-12H72L72,606.7z M67.2,617.1c-0.2,0-0.3,0-0.5,0c0,0,0,0-0.1,0c-2.8,0-5-2.3-5-5.1c0-0.9,0.2-1.7,0.6-2.4
			c0.1-0.2,0.2-0.2,0.2-0.4c0.9-1.4,2.4-2.3,4.2-2.3s3.4,1,4.3,2.4c0.1,0.2,0.2,0.3,0.2,0.5l0,0c0.3,0.7,0.5,1.4,0.5,2.2
			C71.8,614.8,69.7,616.9,67.2,617.1z"/>
	</g>
</g>
<rect x="17.2" y="603.7" class="st0" width="70.4" height="20.6"/>
<rect y="704.8" class="st0" width="358.1" height="103.1"/>
<g id="Layer_2_5_">
	<line class="st2" x1="60.3" y1="758" x2="59" y2="760.1"/>
	<g>
		<polyline class="st4" points="68.3,776.3 88.8,776.3 88.8,779.6 30.6,779.6 30.6,787.4 28,787.4 28,794.5 26.4,794.5 26.4,787.4 
			23.8,787.4 23.8,779.6 23.8,779.6 23.8,776.3 23.8,776.3 23.8,776.3 68.3,776.3 		"/>
		<rect x="23.8" y="776.3" class="st4" width="0" height="3.3"/>
		<path class="st4" d="M49.2,752.4l-9.5-0.1v23.9h9.5V752.4L49.2,752.4z M43.8,771.1h-3.1v-4.8h3.1V771.1z M43.8,761h-3.1v-4.8h3.1
			V761z M48.4,771.2h-3.1v-4.8h3.1V771.2z M48.4,761h-3.1v-4.8h3.1V761z"/>
		<rect x="23.8" y="776.3" class="st4" width="0" height="3.3"/>
		<path class="st4" d="M69.3,760.2v16.1h8.6v-16.1H69.3z M77,766.6h-3.1v-4.8H77V766.6L77,766.6z"/>
		<rect x="58.4" y="720.9" class="st4" width="0.8" height="55.4"/>
		<rect x="56.5" y="723.9" class="st4" width="0.8" height="52.3"/>
		<rect x="54.7" y="726.9" class="st4" width="0.8" height="49.4"/>
		<rect x="52.9" y="729.9" class="st4" width="0.8" height="46.4"/>
		<rect x="51" y="732.9" class="st4" width="0.8" height="43.4"/>
		<rect x="49.2" y="735.9" class="st4" width="0.8" height="40.4"/>
		<rect x="59.1" y="729.9" class="st4" width="0.8" height="46.4"/>
		<rect x="60.9" y="732.9" class="st4" width="0.8" height="43.4"/>
		<rect x="62.8" y="735.8" class="st4" width="0.8" height="40.4"/>
		<rect x="64.6" y="738.9" class="st4" width="0.8" height="37.4"/>
		<rect x="66.5" y="741.8" class="st4" width="0.8" height="34.5"/>
		<rect x="68.3" y="744.9" class="st4" width="0.8" height="31.4"/>
		<path class="st4" d="M31.7,794.5h-1.3v-6.1h1.2v0.8c0.2-0.4,0.4-0.7,0.5-0.8c0.2-0.2,0.4-0.2,0.5-0.2c0.3,0,0.6,0.1,0.8,0.3
			l-0.4,1.4c-0.2-0.2-0.4-0.3-0.6-0.3c-0.2,0-0.3,0.1-0.5,0.2c-0.2,0.2-0.2,0.4-0.3,0.8c-0.1,0.4-0.1,1-0.1,2v1.9H31.7z"/>
		<path class="st4" d="M38.5,794.5v-0.9c-0.2,0.3-0.4,0.6-0.7,0.8s-0.6,0.3-0.9,0.3s-0.6-0.1-0.8-0.2c-0.2-0.2-0.5-0.4-0.5-0.8
			c-0.2-0.3-0.2-0.8-0.2-1.4v-3.9h1.3v2.8c0,0.8,0,1.3,0.1,1.5s0.2,0.4,0.2,0.5c0.1,0.2,0.3,0.2,0.5,0.2s0.4-0.1,0.6-0.2
			c0.2-0.2,0.3-0.4,0.4-0.6s0.1-0.8,0.1-1.6v-2.6h1.3v6.1L38.5,794.5L38.5,794.5z"/>
		<path class="st4" d="M41.8,791.4c0-0.6,0.2-1.1,0.4-1.6s0.5-0.8,0.9-1.1c0.4-0.2,0.8-0.4,1.2-0.4c0.8,0,1.4,0.3,1.8,0.9
			c0.5,0.6,0.7,1.4,0.7,2.2c0,0.6-0.2,1.2-0.4,1.7s-0.5,0.9-0.9,1.1c-0.4,0.2-0.8,0.4-1.2,0.4c-0.7,0-1.3-0.3-1.8-0.8
			C42,793.3,41.8,792.5,41.8,791.4z M43.1,791.5c0,0.6,0.2,1.1,0.4,1.4c0.2,0.3,0.5,0.5,0.8,0.5s0.6-0.2,0.8-0.5s0.4-0.8,0.4-1.4
			c0-0.6-0.2-1.1-0.4-1.4c-0.2-0.3-0.5-0.5-0.8-0.5s-0.6,0.2-0.8,0.5C43.2,790.5,43.1,790.9,43.1,791.5z"/>
		<path class="st4" d="M53.3,794.5H52v-3.1c0-0.6,0-1.1-0.1-1.2c-0.1-0.2-0.2-0.4-0.3-0.5s-0.3-0.2-0.5-0.2s-0.4,0.1-0.6,0.2
			c-0.2,0.2-0.3,0.4-0.4,0.6c-0.1,0.2-0.1,0.8-0.1,1.4v2.7h-1.3v-6.1H50v0.9c0.2-0.4,0.5-0.6,0.7-0.8c0.3-0.2,0.5-0.2,0.9-0.2
			s0.7,0.1,1,0.3c0.2,0.2,0.5,0.5,0.5,0.8c0.1,0.3,0.2,0.8,0.2,1.4C53.3,790.7,53.3,794.5,53.3,794.5z"/>
		<path class="st4" d="M55.6,795H57c0,0.2,0.1,0.6,0.2,0.7c0.2,0.1,0.3,0.2,0.5,0.2c0.3,0,0.5-0.1,0.7-0.2c0.2-0.1,0.2-0.2,0.3-0.4
			s0.1-0.5,0.1-0.8v-0.9c-0.2,0.3-0.4,0.6-0.7,0.8c-0.2,0.2-0.5,0.2-0.8,0.2c-0.5,0-1-0.2-1.4-0.8c-0.5-0.6-0.6-1.4-0.6-2.3
			c0-1.1,0.2-1.8,0.6-2.3c0.4-0.5,0.9-0.8,1.4-0.8c0.3,0,0.6,0.1,0.8,0.2c0.2,0.2,0.5,0.4,0.7,0.8v-0.8H60v5.4
			c0,0.9-0.1,1.5-0.2,1.9s-0.4,0.7-0.7,0.9s-0.8,0.3-1.4,0.3c-0.5,0-1-0.1-1.3-0.2c-0.3-0.2-0.5-0.4-0.8-0.7c-0.2-0.3-0.2-0.6-0.2-1
			L55.6,795L55.6,795z M56.8,791.4c0,0.7,0.1,1.1,0.3,1.4c0.2,0.3,0.5,0.5,0.8,0.5s0.5-0.2,0.8-0.5c0.2-0.3,0.3-0.8,0.3-1.4
			s-0.1-1.1-0.3-1.4c-0.2-0.3-0.5-0.5-0.8-0.5s-0.5,0.2-0.8,0.5C56.9,790.3,56.8,790.8,56.8,791.4z"/>
		<path class="st4" d="M88.2,793.3v1.4h-10v-3.1c0-0.6,0-1.1-0.1-1.2c-0.1-0.2-0.2-0.4-0.3-0.5c-0.2-0.1-0.3-0.2-0.5-0.2
			s-0.4,0.1-0.6,0.2c-0.2,0.2-0.3,0.4-0.4,0.6s-0.1,0.8-0.1,1.4v2.7h-1.3v-6.1h1.2v0.9c0.2-0.4,0.5-0.6,0.7-0.8s0.5-0.2,0.9-0.2
			s0.7,0.1,1,0.3c0.2,0.2,0.5,0.5,0.5,0.8c0.1,0.3,0.2,0.8,0.2,1.4v2.4h8.7v0H88.2z"/>
		<path class="st4" d="M72.4,785.8L72.4,785.8l-3.3,2.8l-0.8,4.4c-0.2,0-0.3,0-0.5,0c0,0,0,0-0.1,0l-0.8-4.4l-3.6-3.1
			c0.1-0.2,0.2-0.2,0.2-0.4l4.4,1.5l4.1-1.4C72.3,785.5,72.4,785.6,72.4,785.8z"/>
		<path class="st4" d="M73.2,782.6v1.4c-1.2-1.6-3.1-2.6-5.3-2.6c-3.6,0-6.6,3-6.6,6.6s3,6.6,6.6,6.6c2.1,0,4.1-1.1,5.3-2.6v2.6h1.4
			v-12H73.2L73.2,782.6z M68.3,793c-0.2,0-0.3,0-0.5,0c0,0,0,0-0.1,0c-2.8,0-5-2.3-5-5.1c0-0.9,0.2-1.7,0.6-2.4
			c0.1-0.2,0.2-0.2,0.2-0.4c0.9-1.4,2.4-2.3,4.2-2.3s3.4,1,4.3,2.4c0.1,0.2,0.2,0.3,0.2,0.5l0,0c0.3,0.7,0.5,1.4,0.5,2.2
			C73,790.6,70.9,792.7,68.3,793z"/>
	</g>
</g>
<rect x="18.3" y="779.6" class="st0" width="70.4" height="20.6"/>
<rect x="452.2" y="207" class="st0" width="358.1" height="103.1"/>
<rect x="452.2" y="524.9" class="st0" width="372.3" height="107.2"/>
<g id="Layer_2_7_">
	<line class="st2" x1="512.6" y1="260.2" x2="511.3" y2="262.4"/>
	<g>
		<polyline class="st4" points="520.5,278.5 541,278.5 541,281.8 482.8,281.8 482.8,289.7 480.2,289.7 480.2,296.7 478.6,296.7 
			478.6,289.7 476,289.7 476,281.8 476,281.8 476,278.5 476,278.5 476,278.5 520.5,278.5 		"/>
		<rect x="476" y="278.5" class="st4" width="0" height="3.3"/>
		<path class="st4" d="M501.4,254.6l-9.5-0.1v23.9h9.5V254.6L501.4,254.6z M496,273.3h-3.1v-4.8h3.1V273.3z M496,263.3h-3.1v-4.8
			h3.1V263.3z M500.6,273.4h-3.1v-4.8h3.1V273.4z M500.6,263.3h-3.1v-4.8h3.1V263.3z"/>
		<rect x="476" y="278.5" class="st4" width="0" height="3.3"/>
		<path class="st4" d="M521.5,262.4v16.1h8.6v-16.1H521.5z M529.3,268.8h-3.1V264h3.1V268.8L529.3,268.8z"/>
		<rect x="510.6" y="223.2" class="st4" width="0.8" height="55.4"/>
		<rect x="508.8" y="226.1" class="st4" width="0.8" height="52.3"/>
		<rect x="507" y="229.1" class="st4" width="0.8" height="49.4"/>
		<rect x="505.1" y="232.1" class="st4" width="0.8" height="46.4"/>
		<rect x="503.2" y="235.1" class="st4" width="0.8" height="43.4"/>
		<rect x="501.4" y="238.1" class="st4" width="0.8" height="40.4"/>
		<rect x="511.3" y="232.1" class="st4" width="0.8" height="46.4"/>
		<rect x="513.2" y="235.1" class="st4" width="0.8" height="43.4"/>
		<rect x="515" y="238.1" class="st4" width="0.8" height="40.4"/>
		<rect x="516.9" y="241.1" class="st4" width="0.8" height="37.4"/>
		<rect x="518.7" y="244" class="st4" width="0.8" height="34.5"/>
		<rect x="520.5" y="247.1" class="st4" width="0.8" height="31.4"/>
		<path class="st4" d="M484,296.8h-1.3v-6.1h1.2v0.8c0.2-0.4,0.4-0.7,0.5-0.8c0.2-0.2,0.4-0.2,0.5-0.2c0.3,0,0.6,0.1,0.8,0.3
			l-0.4,1.4c-0.2-0.2-0.4-0.3-0.6-0.3s-0.3,0.1-0.5,0.2c-0.2,0.2-0.2,0.4-0.3,0.8s-0.1,1-0.1,2v1.9H484z"/>
		<path class="st4" d="M490.7,296.8v-0.9c-0.2,0.3-0.4,0.6-0.7,0.8c-0.3,0.2-0.6,0.3-0.9,0.3s-0.6-0.1-0.8-0.2
			c-0.2-0.2-0.5-0.4-0.5-0.8c-0.2-0.3-0.2-0.8-0.2-1.4v-3.9h1.3v2.8c0,0.8,0,1.3,0.1,1.5s0.2,0.4,0.2,0.5s0.3,0.2,0.5,0.2
			s0.4-0.1,0.6-0.2c0.2-0.2,0.3-0.4,0.4-0.6s0.1-0.8,0.1-1.6v-2.6h1.3v6.1L490.7,296.8L490.7,296.8z"/>
		<path class="st4" d="M494,293.7c0-0.6,0.2-1.1,0.4-1.6c0.2-0.5,0.5-0.8,0.9-1.1c0.4-0.2,0.8-0.4,1.2-0.4c0.8,0,1.4,0.3,1.8,0.9
			c0.5,0.6,0.7,1.4,0.7,2.2c0,0.6-0.2,1.2-0.4,1.7c-0.2,0.5-0.5,0.9-0.9,1.1s-0.8,0.4-1.2,0.4c-0.7,0-1.3-0.3-1.8-0.8
			C494.2,295.6,494,294.7,494,293.7z M495.3,293.7c0,0.6,0.2,1.1,0.4,1.4c0.2,0.3,0.5,0.5,0.8,0.5s0.6-0.2,0.8-0.5
			c0.2-0.3,0.4-0.8,0.4-1.4s-0.2-1.1-0.4-1.4c-0.2-0.3-0.5-0.5-0.8-0.5s-0.6,0.2-0.8,0.5C495.5,292.7,495.3,293.1,495.3,293.7z"/>
		<path class="st4" d="M505.5,296.8h-1.3v-3.1c0-0.6,0-1.1-0.1-1.2c-0.1-0.2-0.2-0.4-0.3-0.5c-0.2-0.1-0.3-0.2-0.5-0.2
			s-0.4,0.1-0.6,0.2c-0.2,0.2-0.3,0.4-0.4,0.6s-0.1,0.8-0.1,1.4v2.7h-1.3v-6.1h1.2v0.9c0.2-0.4,0.5-0.6,0.7-0.8
			c0.3-0.2,0.5-0.2,0.9-0.2s0.7,0.1,1,0.3c0.2,0.2,0.5,0.5,0.5,0.8c0.1,0.3,0.2,0.8,0.2,1.4L505.5,296.8L505.5,296.8z"/>
		<path class="st4" d="M507.9,297.2h1.4c0,0.2,0.1,0.6,0.2,0.7c0.2,0.1,0.3,0.2,0.5,0.2c0.3,0,0.5-0.1,0.7-0.2s0.2-0.2,0.3-0.4
			c0.1-0.2,0.1-0.5,0.1-0.8v-0.9c-0.2,0.3-0.4,0.6-0.7,0.8c-0.2,0.2-0.5,0.2-0.8,0.2c-0.5,0-1-0.2-1.4-0.8c-0.5-0.6-0.6-1.4-0.6-2.3
			c0-1.1,0.2-1.8,0.6-2.3s0.9-0.8,1.4-0.8c0.3,0,0.6,0.1,0.8,0.2c0.2,0.2,0.5,0.4,0.7,0.8v-0.8h1.2v5.4c0,0.9-0.1,1.5-0.2,1.9
			s-0.4,0.7-0.7,0.9c-0.3,0.2-0.8,0.3-1.4,0.3c-0.5,0-1-0.1-1.3-0.2c-0.3-0.2-0.5-0.4-0.8-0.7c-0.2-0.3-0.2-0.6-0.2-1v-0.2H507.9z
			 M509,293.6c0,0.7,0.1,1.1,0.3,1.4c0.2,0.3,0.5,0.5,0.8,0.5s0.5-0.2,0.8-0.5c0.2-0.3,0.3-0.8,0.3-1.4s-0.1-1.1-0.3-1.4
			c-0.2-0.3-0.5-0.5-0.8-0.5s-0.5,0.2-0.8,0.5C509.1,292.5,509,293,509,293.6z"/>
		<path class="st4" d="M540.5,295.5v1.4h-10v-3.1c0-0.6,0-1.1-0.1-1.2c-0.1-0.2-0.2-0.4-0.3-0.5s-0.3-0.2-0.5-0.2s-0.4,0.1-0.6,0.2
			c-0.2,0.2-0.3,0.4-0.4,0.6c-0.1,0.2-0.1,0.8-0.1,1.4v2.7h-1.3v-6.1h1.2v0.9c0.2-0.4,0.5-0.6,0.7-0.8c0.2-0.2,0.5-0.2,0.9-0.2
			s0.7,0.1,1,0.3c0.2,0.2,0.5,0.5,0.5,0.8c0.1,0.3,0.2,0.8,0.2,1.4v2.4L540.5,295.5L540.5,295.5L540.5,295.5z"/>
		<path class="st4" d="M524.7,288L524.7,288l-3.3,2.8l-0.8,4.4c-0.2,0-0.3,0-0.5,0c0,0,0,0-0.1,0l-0.8-4.4l-3.6-3.1
			c0.1-0.2,0.2-0.2,0.2-0.4l4.4,1.5l4.1-1.4C524.5,287.7,524.6,287.8,524.7,288z"/>
		<path class="st4" d="M525.4,284.8v1.4c-1.2-1.6-3.1-2.6-5.3-2.6c-3.6,0-6.6,3-6.6,6.6s3,6.6,6.6,6.6c2.1,0,4.1-1.1,5.3-2.6v2.6
			h1.4v-12H525.4L525.4,284.8z M520.6,295.2c-0.2,0-0.3,0-0.5,0c0,0,0,0-0.1,0c-2.8,0-5-2.3-5-5.1c0-0.9,0.2-1.7,0.6-2.4
			c0.1-0.2,0.2-0.2,0.2-0.4c0.9-1.4,2.4-2.3,4.2-2.3s3.4,1,4.3,2.4c0.1,0.2,0.2,0.3,0.2,0.5l0,0c0.3,0.7,0.5,1.4,0.5,2.2
			C525.2,292.8,523.1,295,520.6,295.2z"/>
	</g>
</g>
<rect x="470.6" y="281.8" class="st0" width="70.4" height="20.6"/>
<rect y="880.6" class="st0" width="358.1" height="103.1"/>
<g id="Layer_2_6_">
	<line class="st2" x1="60.4" y1="933.8" x2="59.2" y2="935.9"/>
	<g>
		<polyline class="st3" points="68.4,952.1 88.9,952.1 88.9,955.4 30.7,955.4 30.7,963.2 28.1,963.2 28.1,970.3 26.5,970.3 
			26.5,963.2 23.9,963.2 23.9,955.4 23.9,955.4 23.9,952.1 23.9,952.1 23.9,952.1 68.4,952.1 		"/>
		<rect x="23.9" y="952.1" class="st3" width="0" height="3.3"/>
		<path class="st3" d="M49.3,928.2l-9.5-0.1V952h9.5V928.2L49.3,928.2z M43.9,946.9h-3.1v-4.8h3.1V946.9z M43.9,936.8h-3.1V932h3.1
			V936.8z M48.5,947h-3.1v-4.8h3.1V947z M48.5,936.8h-3.1V932h3.1V936.8z"/>
		<rect x="23.9" y="952.1" class="st3" width="0" height="3.3"/>
		<path class="st3" d="M69.4,936v16.1H78V936H69.4z M77.2,942.4h-3.1v-4.8h3.1V942.4L77.2,942.4z"/>
		<rect x="58.5" y="896.7" class="st3" width="0.8" height="55.4"/>
		<rect x="56.7" y="899.7" class="st3" width="0.8" height="52.3"/>
		<rect x="54.8" y="902.7" class="st3" width="0.8" height="49.4"/>
		<rect x="53" y="905.7" class="st3" width="0.8" height="46.4"/>
		<rect x="51.1" y="908.7" class="st3" width="0.8" height="43.4"/>
		<rect x="49.3" y="911.7" class="st3" width="0.8" height="40.4"/>
		<rect x="59.2" y="905.7" class="st3" width="0.8" height="46.4"/>
		<rect x="61.1" y="908.7" class="st3" width="0.8" height="43.4"/>
		<rect x="62.9" y="911.6" class="st3" width="0.8" height="40.4"/>
		<rect x="64.8" y="914.7" class="st3" width="0.8" height="37.4"/>
		<rect x="66.6" y="917.6" class="st3" width="0.8" height="34.5"/>
		<rect x="68.4" y="920.7" class="st3" width="0.8" height="31.4"/>
		<path class="st3" d="M31.9,970.4h-1.3v-6.1h1.2v0.8c0.2-0.4,0.4-0.7,0.5-0.8c0.2-0.2,0.4-0.2,0.5-0.2c0.3,0,0.6,0.1,0.8,0.3
			l-0.4,1.4c-0.2-0.2-0.4-0.3-0.6-0.3s-0.3,0.1-0.5,0.2c-0.2,0.2-0.2,0.4-0.3,0.8c-0.1,0.4-0.1,1-0.1,2v1.9H31.9z"/>
		<path class="st3" d="M38.6,970.4v-0.9c-0.2,0.3-0.4,0.6-0.7,0.8s-0.6,0.3-0.9,0.3s-0.6-0.1-0.8-0.2s-0.5-0.4-0.5-0.8
			c-0.2-0.3-0.2-0.8-0.2-1.4v-3.9h1.3v2.8c0,0.8,0,1.3,0.1,1.5s0.2,0.4,0.2,0.5s0.3,0.2,0.5,0.2s0.4-0.1,0.6-0.2
			c0.2-0.2,0.3-0.4,0.4-0.6c0.1-0.2,0.1-0.8,0.1-1.6v-2.6H40v6.1L38.6,970.4L38.6,970.4z"/>
		<path class="st3" d="M41.9,967.3c0-0.6,0.2-1.1,0.4-1.6s0.5-0.8,0.9-1.1c0.4-0.2,0.8-0.4,1.2-0.4c0.8,0,1.4,0.3,1.8,0.9
			s0.7,1.4,0.7,2.2c0,0.6-0.2,1.2-0.4,1.7s-0.5,0.9-0.9,1.1s-0.8,0.4-1.2,0.4c-0.7,0-1.3-0.3-1.8-0.8
			C42.1,969.1,41.9,968.3,41.9,967.3z M43.2,967.3c0,0.6,0.2,1.1,0.4,1.4c0.2,0.3,0.5,0.5,0.8,0.5s0.6-0.2,0.8-0.5s0.4-0.8,0.4-1.4
			c0-0.6-0.2-1.1-0.4-1.4c-0.2-0.3-0.5-0.5-0.8-0.5s-0.6,0.2-0.8,0.5C43.3,966.3,43.2,966.7,43.2,967.3z"/>
		<path class="st3" d="M53.4,970.4h-1.3v-3.1c0-0.6,0-1.1-0.1-1.2c-0.1-0.2-0.2-0.4-0.3-0.5c-0.2-0.1-0.3-0.2-0.5-0.2
			s-0.4,0.1-0.6,0.2c-0.2,0.2-0.3,0.4-0.4,0.6c-0.1,0.2-0.1,0.8-0.1,1.4v2.7h-1.3v-6.1H50v0.9c0.2-0.4,0.5-0.6,0.7-0.8
			c0.3-0.2,0.5-0.2,0.9-0.2s0.7,0.1,1,0.3c0.2,0.2,0.5,0.5,0.5,0.8s0.2,0.8,0.2,1.4L53.4,970.4L53.4,970.4z"/>
		<path class="st3" d="M55.8,970.8h1.4c0,0.2,0.1,0.6,0.2,0.7c0.2,0.1,0.3,0.2,0.5,0.2c0.3,0,0.5-0.1,0.7-0.2
			c0.2-0.1,0.2-0.2,0.3-0.4s0.1-0.5,0.1-0.8v-0.9c-0.2,0.3-0.4,0.6-0.7,0.8c-0.2,0.2-0.5,0.2-0.8,0.2c-0.5,0-1-0.2-1.4-0.8
			c-0.5-0.6-0.6-1.4-0.6-2.3c0-1.1,0.2-1.8,0.6-2.3c0.4-0.5,0.9-0.8,1.4-0.8c0.3,0,0.6,0.1,0.8,0.2c0.2,0.2,0.5,0.4,0.7,0.8v-0.8
			h1.2v5.4c0,0.9-0.1,1.5-0.2,1.9c-0.2,0.4-0.4,0.7-0.7,0.9s-0.8,0.3-1.4,0.3c-0.5,0-1-0.1-1.3-0.2c-0.3-0.2-0.5-0.4-0.8-0.7
			c-0.2-0.3-0.2-0.6-0.2-1L55.8,970.8L55.8,970.8z M56.9,967.2c0,0.7,0.1,1.1,0.3,1.4c0.2,0.3,0.5,0.5,0.8,0.5s0.5-0.2,0.8-0.5
			c0.2-0.3,0.3-0.8,0.3-1.4s-0.1-1.1-0.3-1.4c-0.2-0.3-0.5-0.5-0.8-0.5s-0.5,0.2-0.8,0.5C57,966.1,56.9,966.6,56.9,967.2z"/>
		<path class="st3" d="M88.4,969.1v1.4h-10v-3.1c0-0.6,0-1.1-0.1-1.2c-0.1-0.2-0.2-0.4-0.3-0.5s-0.3-0.2-0.5-0.2s-0.4,0.1-0.6,0.2
			c-0.2,0.2-0.3,0.4-0.4,0.6s-0.1,0.8-0.1,1.4v2.7h-1.3v-6.1h1.2v0.9c0.2-0.4,0.5-0.6,0.7-0.8s0.5-0.2,0.9-0.2s0.7,0.1,1,0.3
			c0.2,0.2,0.5,0.5,0.5,0.8c0.1,0.3,0.2,0.8,0.2,1.4v2.4h8.7v0H88.4z"/>
		<path class="st3" d="M72.5,961.6L72.5,961.6l-3.3,2.8l-0.8,4.4c-0.2,0-0.3,0-0.5,0c0,0,0,0-0.1,0l-0.8-4.4l-3.6-3.1
			c0.1-0.2,0.2-0.2,0.2-0.4l4.4,1.5l4.1-1.4C72.4,961.3,72.5,961.4,72.5,961.6z"/>
		<path class="st3" d="M73.3,958.4v1.4c-1.2-1.6-3.1-2.6-5.3-2.6c-3.6,0-6.6,3-6.6,6.6s3,6.6,6.6,6.6c2.1,0,4.1-1.1,5.3-2.6v2.6h1.4
			v-12H73.3L73.3,958.4z M68.5,968.8c-0.2,0-0.3,0-0.5,0c0,0,0,0-0.1,0c-2.8,0-5-2.3-5-5.1c0-0.9,0.2-1.7,0.6-2.4
			c0.1-0.2,0.2-0.2,0.2-0.4c0.9-1.4,2.4-2.3,4.2-2.3s3.4,1,4.3,2.4c0.1,0.2,0.2,0.3,0.2,0.5l0,0c0.3,0.7,0.5,1.4,0.5,2.2
			C73.1,966.4,71,968.5,68.5,968.8z"/>
	</g>
</g>
<rect x="18.5" y="955.4" class="st0" width="70.4" height="20.6"/>
<text transform="matrix(1 0 0 1 484.2573 107.8618)" class="st4 st6 st7">TRƯỜNG AN</text>
<ellipse transform="matrix(0.1602 -0.9871 0.9871 0.1602 169.1214 721.3784)" class="st8" cx="508.5" cy="261.3" rx="37.9" ry="37.9"/>
<circle class="st4" cx="509.5" cy="580.9" r="39.4"/>
<rect x="452.2" y="366.4" class="st0" width="358.1" height="103.1"/>
<g id="Layer_2_8_">
	<line class="st2" x1="511.2" y1="414.2" x2="510.1" y2="416.1"/>
	<g>
		<polyline class="st4" points="518.3,430.5 536.5,430.5 536.5,433.3 484.7,433.3 484.7,440.4 482.4,440.4 482.4,446.6 481,446.6 
			481,440.4 478.6,440.4 478.6,433.3 478.6,433.3 478.6,430.5 478.6,430.5 478.6,430.5 518.3,430.5 		"/>
		<rect x="478.6" y="430.5" class="st4" width="0" height="2.9"/>
		<path class="st4" d="M501.3,409.2l-8.5-0.1v21.3h8.5V409.2L501.3,409.2z M496.5,425.8h-2.8v-4.3h2.8V425.8z M496.5,416.9h-2.8
			v-4.3h2.8V416.9z M500.5,425.8h-2.8v-4.3h2.8V425.8z M500.5,416.9h-2.8v-4.3h2.8V416.9z"/>
		<rect x="478.6" y="430.5" class="st4" width="0" height="2.9"/>
		<path class="st4" d="M519.1,416.1v14.3h7.7v-14.3H519.1z M526.1,421.8h-2.8v-4.3h2.8V421.8L526.1,421.8z"/>
		<rect x="509.4" y="381.2" class="st4" width="0.7" height="49.3"/>
		<rect x="507.8" y="383.7" class="st4" width="0.7" height="46.6"/>
		<rect x="506.2" y="386.5" class="st4" width="0.7" height="44"/>
		<rect x="504.6" y="389.1" class="st4" width="0.7" height="41.3"/>
		<rect x="502.9" y="391.8" class="st4" width="0.7" height="38.6"/>
		<rect x="501.3" y="394.5" class="st4" width="0.7" height="36"/>
		<rect x="510.1" y="389.1" class="st4" width="0.7" height="41.3"/>
		<rect x="511.8" y="391.8" class="st4" width="0.7" height="38.6"/>
		<rect x="513.4" y="394.4" class="st4" width="0.7" height="36"/>
		<rect x="515.1" y="397.1" class="st4" width="0.7" height="33.3"/>
		<rect x="516.7" y="399.8" class="st4" width="0.7" height="30.7"/>
		<rect x="518.3" y="402.5" class="st4" width="0.7" height="27.9"/>
		<path class="st4" d="M485.8,446.7h-1.2v-5.4h1.1v0.7c0.2-0.4,0.4-0.6,0.4-0.7c0.2-0.2,0.4-0.2,0.4-0.2c0.3,0,0.5,0.1,0.7,0.3
			l-0.4,1.2c-0.2-0.2-0.4-0.3-0.5-0.3c-0.2,0-0.3,0.1-0.4,0.2c-0.2,0.2-0.2,0.4-0.3,0.7c-0.1,0.4-0.1,0.9-0.1,1.8v1.7H485.8z"/>
		<path class="st4" d="M491.7,446.7v-0.8c-0.2,0.3-0.4,0.5-0.6,0.7c-0.3,0.2-0.5,0.3-0.8,0.3c-0.3,0-0.5-0.1-0.7-0.2
			c-0.2-0.2-0.4-0.4-0.4-0.7c-0.2-0.3-0.2-0.7-0.2-1.2v-3.5h1.2v2.5c0,0.7,0,1.2,0.1,1.3c0.1,0.2,0.2,0.4,0.2,0.4s0.3,0.2,0.4,0.2
			c0.2,0,0.4-0.1,0.5-0.2c0.2-0.2,0.3-0.4,0.4-0.5c0.1-0.2,0.1-0.7,0.1-1.4v-2.3h1.2v5.4H491.7L491.7,446.7z"/>
		<path class="st4" d="M494.7,443.9c0-0.5,0.2-1,0.4-1.4s0.4-0.7,0.8-1c0.4-0.2,0.7-0.4,1.1-0.4c0.7,0,1.2,0.3,1.6,0.8
			c0.4,0.5,0.6,1.2,0.6,2c0,0.5-0.2,1.1-0.4,1.5s-0.4,0.8-0.8,1c-0.4,0.2-0.7,0.4-1.1,0.4c-0.6,0-1.2-0.3-1.6-0.7
			C494.8,445.6,494.7,444.8,494.7,443.9z M495.8,444c0,0.5,0.2,1,0.4,1.2c0.2,0.3,0.4,0.4,0.7,0.4c0.3,0,0.5-0.2,0.7-0.4
			c0.2-0.3,0.4-0.7,0.4-1.2s-0.2-1-0.4-1.2c-0.2-0.3-0.4-0.4-0.7-0.4c-0.3,0-0.5,0.2-0.7,0.4C496,443,495.8,443.5,495.8,444z"/>
		<path class="st4" d="M504.9,446.7h-1.2v-2.8c0-0.5,0-1-0.1-1.1c-0.1-0.2-0.2-0.4-0.3-0.4c-0.2-0.1-0.3-0.2-0.4-0.2
			c-0.2,0-0.4,0.1-0.5,0.2c-0.2,0.2-0.3,0.4-0.4,0.5s-0.1,0.7-0.1,1.2v2.4h-1.2v-5.4h1.1v0.8c0.2-0.4,0.4-0.5,0.6-0.7
			c0.3-0.2,0.4-0.2,0.8-0.2c0.4,0,0.6,0.1,0.9,0.3c0.2,0.2,0.4,0.4,0.4,0.7c0.1,0.3,0.2,0.7,0.2,1.2L504.9,446.7L504.9,446.7z"/>
		<path class="st4" d="M507,447h1.2c0,0.2,0.1,0.5,0.2,0.6c0.2,0.1,0.3,0.2,0.4,0.2c0.3,0,0.4-0.1,0.6-0.2s0.2-0.2,0.3-0.4
			c0.1-0.2,0.1-0.4,0.1-0.7v-0.8c-0.2,0.3-0.4,0.5-0.6,0.7c-0.2,0.2-0.4,0.2-0.7,0.2c-0.4,0-0.9-0.2-1.2-0.7c-0.4-0.5-0.5-1.2-0.5-2
			c0-1,0.2-1.6,0.5-2c0.4-0.4,0.8-0.7,1.2-0.7c0.3,0,0.5,0.1,0.7,0.2c0.2,0.2,0.4,0.4,0.6,0.7v-0.8h1.1v4.8c0,0.8-0.1,1.3-0.2,1.7
			c-0.2,0.4-0.4,0.6-0.6,0.8c-0.3,0.2-0.7,0.3-1.2,0.3c-0.4,0-0.9-0.1-1.2-0.2c-0.3-0.1-0.4-0.4-0.7-0.6c-0.2-0.3-0.2-0.5-0.2-0.9
			V447H507z M508,443.8c0,0.6,0.1,1,0.3,1.2c0.2,0.3,0.4,0.4,0.7,0.4c0.3,0,0.4-0.2,0.7-0.4c0.2-0.3,0.3-0.7,0.3-1.2
			c0-0.5-0.1-1-0.3-1.2c-0.2-0.3-0.4-0.4-0.7-0.4c-0.3,0-0.4,0.2-0.7,0.4C508.1,442.9,508,443.3,508,443.8z"/>
		<path class="st4" d="M536.1,445.5v1.2h-8.9V444c0-0.5,0-1-0.1-1.1c-0.1-0.2-0.2-0.4-0.3-0.4c-0.2-0.1-0.3-0.2-0.4-0.2
			s-0.4,0.1-0.5,0.2c-0.2,0.2-0.3,0.4-0.4,0.5s-0.1,0.7-0.1,1.2v2.4h-1.2v-5.4h1.1v0.8c0.2-0.4,0.4-0.5,0.6-0.7
			c0.2-0.2,0.4-0.2,0.8-0.2c0.4,0,0.6,0.1,0.9,0.3c0.2,0.2,0.4,0.4,0.4,0.7c0.1,0.3,0.2,0.7,0.2,1.2v2.1L536.1,445.5L536.1,445.5
			L536.1,445.5z"/>
		<path class="st4" d="M522,438.8L522,438.8l-2.9,2.5l-0.7,3.9c-0.2,0-0.3,0-0.4,0c0,0,0,0-0.1,0l-0.7-3.9l-3.2-2.8
			c0.1-0.2,0.2-0.2,0.2-0.4l3.9,1.3l3.6-1.2C521.8,438.6,521.9,438.8,522,438.8z"/>
		<path class="st4" d="M522.6,436v1.2c-1.1-1.4-2.8-2.3-4.7-2.3c-3.2,0-5.9,2.7-5.9,5.9c0,3.2,2.7,5.9,5.9,5.9c1.9,0,3.6-1,4.7-2.3
			v2.3h1.2V436H522.6L522.6,436z M518.3,445.3c-0.2,0-0.3,0-0.4,0c0,0,0,0-0.1,0c-2.5,0-4.5-2-4.5-4.5c0-0.8,0.2-1.5,0.5-2.1
			c0.1-0.2,0.2-0.2,0.2-0.4c0.8-1.2,2.1-2,3.7-2s3,0.9,3.8,2.1c0.1,0.2,0.2,0.3,0.2,0.4l0,0c0.3,0.6,0.4,1.2,0.4,2
			C522.4,443.2,520.6,445.1,518.3,445.3z"/>
	</g>
</g>
<ellipse transform="matrix(0.1602 -0.9871 0.9871 0.1602 11.8784 855.1614)" class="st8" cx="508.5" cy="420.6" rx="37.9" ry="37.9"/>
<text transform="matrix(1 0 0 1 558.8594 438.8263)" class="st4 st6 st7">TRƯỜNG AN</text>
<g>
	<rect x="482.2" y="602.2" class="st9" width="1.5" height="6.1"/>
	<g>
		<rect x="480" y="592.5" class="st9" width="39.7" height="2.8"/>
		<rect x="511.3" y="592.5" class="st9" width="0.9" height="2.8"/>
		<rect x="512.9" y="592.5" class="st9" width="0.9" height="2.8"/>
		<rect x="514.5" y="592.5" class="st9" width="0.9" height="2.8"/>
		<rect x="516.1" y="592.5" class="st9" width="0.9" height="2.8"/>
		<rect x="517.6" y="592.5" class="st9" width="0.9" height="2.8"/>
		<rect x="519.2" y="592.5" class="st9" width="0.4" height="2.8"/>
		<rect x="519.7" y="592.5" class="st9" width="16.7" height="2.8"/>
		<rect x="479.9" y="592.5" class="st9" width="6" height="9.7"/>
		<polygon class="st9" points="493.8,571.7 493.8,592.9 502.1,592.9 502.1,571.8 		"/>
		<rect x="494.6" y="575.1" class="st10" width="2.7" height="4.1"/>
		<rect x="498.6" y="575.1" class="st10" width="2.7" height="4.1"/>
		<rect x="498.6" y="583.9" class="st10" width="2.7" height="4.1"/>
		<rect x="494.6" y="583.9" class="st10" width="2.7" height="4.1"/>
		<g>
			<rect x="519.1" y="578.6" class="st11" width="7.5" height="14"/>
			<rect x="523.2" y="580" class="st10" width="2.7" height="4.1"/>
		</g>
		<g>
			<rect x="510" y="544.5" class="st9" width="0.7" height="48.1"/>
			<rect x="508.4" y="547.1" class="st9" width="0.7" height="45.8"/>
			<rect x="506.8" y="549.7" class="st9" width="0.7" height="43.3"/>
			<rect x="505.2" y="552.2" class="st9" width="0.7" height="41.1"/>
			<rect x="503.6" y="554.9" class="st9" width="0.7" height="38.9"/>
			<rect x="502" y="557.4" class="st9" width="0.7" height="36.5"/>
		</g>
		<rect x="510.6" y="552.2" class="st11" width="0.7" height="40.3"/>
		<rect x="512.2" y="554.8" class="st11" width="0.7" height="37.7"/>
		<rect x="513.8" y="557.4" class="st11" width="0.7" height="35.1"/>
		<rect x="515.4" y="560" class="st11" width="0.7" height="32.5"/>
		<rect x="517" y="562.6" class="st11" width="0.7" height="29.9"/>
		<rect x="518.6" y="565.3" class="st11" width="0.7" height="27.3"/>
		<path class="st9" d="M486.9,608.4h-1.1v-5.3h1v0.7c0.2-0.4,0.3-0.6,0.5-0.7c0.1-0.1,0.3-0.2,0.5-0.2c0.2,0,0.5,0.1,0.7,0.3
			l-0.4,1.2c-0.2-0.2-0.4-0.2-0.5-0.2s-0.3,0.1-0.4,0.2c-0.1,0.1-0.2,0.3-0.2,0.6c-0.1,0.3-0.1,0.9-0.1,1.7L486.9,608.4L486.9,608.4
			z"/>
		<path class="st9" d="M492.7,608.4v-0.8c-0.2,0.3-0.4,0.5-0.6,0.7c-0.2,0.2-0.5,0.2-0.8,0.2c-0.3,0-0.5-0.1-0.7-0.2
			c-0.2-0.1-0.4-0.4-0.5-0.6c-0.1-0.3-0.2-0.7-0.2-1.2v-3.3h1.1v2.4c0,0.7,0,1.1,0.1,1.3c0,0.2,0.1,0.3,0.2,0.4
			c0.1,0.1,0.2,0.2,0.4,0.2c0.2,0,0.4-0.1,0.5-0.2c0.2-0.1,0.2-0.3,0.3-0.5s0.1-0.7,0.1-1.4v-2.2h1.1v5.3L492.7,608.4L492.7,608.4z"
			/>
		<path class="st9" d="M495.6,605.7c0-0.5,0.1-1,0.3-1.4s0.5-0.7,0.8-1c0.3-0.2,0.7-0.3,1.1-0.3c0.7,0,1.2,0.3,1.6,0.8
			c0.4,0.5,0.6,1.2,0.6,1.9c0,0.5-0.1,1-0.3,1.5c-0.2,0.4-0.5,0.8-0.8,1c-0.3,0.2-0.7,0.3-1.1,0.3c-0.6,0-1.1-0.2-1.5-0.7
			C495.8,607.3,495.6,606.6,495.6,605.7z M496.7,605.7c0,0.5,0.1,0.9,0.3,1.2c0.2,0.3,0.4,0.4,0.7,0.4c0.3,0,0.5-0.1,0.7-0.4
			c0.2-0.3,0.3-0.7,0.3-1.2s-0.1-0.9-0.3-1.2c-0.2-0.3-0.4-0.4-0.7-0.4s-0.5,0.1-0.7,0.4C496.8,604.8,496.7,605.2,496.7,605.7z"/>
		<path class="st9" d="M505.6,608.4h-1.1v-2.7c0-0.5,0-0.9-0.1-1.1c-0.1-0.2-0.1-0.3-0.2-0.4c-0.1-0.1-0.2-0.1-0.4-0.1
			c-0.2,0-0.4,0.1-0.5,0.2c-0.1,0.1-0.2,0.3-0.3,0.5c-0.1,0.2-0.1,0.6-0.1,1.2v2.4h-1.1v-5.3h1v0.8c0.2-0.3,0.4-0.5,0.6-0.7
			c0.2-0.1,0.5-0.2,0.8-0.2c0.3,0,0.6,0.1,0.8,0.2c0.2,0.2,0.4,0.4,0.5,0.7c0.1,0.3,0.1,0.7,0.1,1.2L505.6,608.4L505.6,608.4z"/>
		<path class="st9" d="M507.6,608.7h1.3c0,0.2,0.1,0.5,0.2,0.6c0.1,0.1,0.2,0.1,0.5,0.1c0.2,0,0.4-0.1,0.6-0.1
			c0.1-0.1,0.2-0.2,0.2-0.3c0.1-0.1,0.1-0.4,0.1-0.7v-0.8c-0.2,0.3-0.4,0.5-0.5,0.6c-0.2,0.1-0.4,0.2-0.7,0.2
			c-0.5,0-0.9-0.2-1.2-0.7c-0.4-0.5-0.5-1.2-0.5-2c0-0.9,0.2-1.6,0.5-2s0.8-0.7,1.3-0.7c0.2,0,0.5,0.1,0.7,0.2
			c0.2,0.1,0.4,0.4,0.6,0.7v-0.7h1v4.7c0,0.7-0.1,1.3-0.2,1.6c-0.1,0.3-0.3,0.6-0.6,0.8c-0.3,0.2-0.7,0.2-1.2,0.2
			c-0.5,0-0.8-0.1-1.1-0.2s-0.5-0.3-0.6-0.5c-0.1-0.2-0.2-0.5-0.2-0.9L507.6,608.7L507.6,608.7z M508.6,605.6c0,0.5,0.1,1,0.3,1.2
			c0.2,0.2,0.4,0.4,0.6,0.4c0.3,0,0.5-0.1,0.7-0.4c0.2-0.3,0.3-0.7,0.3-1.2c0-0.5-0.1-1-0.3-1.2c-0.2-0.3-0.4-0.4-0.7-0.4
			c-0.3,0-0.5,0.1-0.7,0.4C508.7,604.7,508.6,605.1,508.6,605.6z"/>
		<path class="st9" d="M528.3,608.4h-1.1v-2.7c0-0.5,0-0.9-0.1-1.1c-0.1-0.2-0.1-0.3-0.2-0.4c-0.1-0.1-0.2-0.1-0.4-0.1
			c-0.2,0-0.4,0.1-0.5,0.2c-0.1,0.1-0.2,0.3-0.3,0.5c-0.1,0.2-0.1,0.6-0.1,1.2v2.4h-1.1v-5.3h1v0.8c0.2-0.3,0.4-0.5,0.6-0.7
			s0.5-0.2,0.8-0.2c0.3,0,0.6,0.1,0.8,0.2c0.2,0.2,0.4,0.4,0.5,0.7c0.1,0.3,0.1,0.7,0.1,1.2L528.3,608.4L528.3,608.4z"/>
		<g>
			<polygon class="st11" points="518.4,601.6 523.1,599.9 519.3,603.2 518.4,608 517.5,603.2 513.7,599.9 			"/>
			<path class="st9" d="M518.2,608.4c-3.2,0-5.7-2.6-5.7-5.7s2.6-5.7,5.7-5.7s5.7,2.6,5.7,5.7S521.4,608.4,518.2,608.4z
				 M518.2,598.2c-2.4,0-4.4,2-4.4,4.4s2,4.4,4.4,4.4s4.4-2,4.4-4.4S520.6,598.2,518.2,598.2z"/>
		</g>
		<rect x="522.8" y="597.9" class="st9" width="1.3" height="10.4"/>
		<rect x="528" y="607.2" class="st9" width="7.9" height="1.2"/>
	</g>
</g>
</svg>
